<?xml version="1.0" encoding="utf-8"?>
<!-- Generator: Adobe Illustrator 22.1.0, SVG Export Plug-In . SVG Version: 6.00 Build 0)  -->
<svg version="1.1" id="Layer_1" xmlns="http://www.w3.org/2000/svg" xmlns:xlink="http://www.w3.org/1999/xlink" x="0px" y="0px"
	 viewBox="0 0 101.9 89.9" style="enable-background:new 0 0 101.9 89.9;" xml:space="preserve">
<g>
	<path d="M78.4,14.6C68.7,7.9,56.9,5.3,45.5,2.9c-2.4-0.5-4,1.6-4,3.5C38.3,7,35.1,7.9,32,9.2C23.8,12.7,16.9,19,12.7,27
		c-8.3,15.7-6.3,36.3,6.8,48.8C31,86.9,49,90.8,64.2,85.9c9.1-2.9,17.3-8.6,22.7-16.7c5.5-8.4,8.4-19.4,7.3-29.4
		C93,29.3,87,20.7,78.4,14.6z M85.8,58.9c-3.2,8.3-9.3,14.8-17.2,18.9c-12.7,6.5-28.5,5.5-40.3-2.4C15.4,66.8,10.9,50.6,15.2,36
		c2.5-8.5,8.1-15.4,15.4-20.2c3.7-2.5,7.8-4.3,12.1-5.5c1-0.3,2-0.5,3-0.8c15.6,2.9,33.9,7.3,40.9,23.1C90.3,40.8,89,50.7,85.8,58.9
		z"/>
	<path d="M55.8,45c2.1-2.2,4.2-4.4,6.3-6.6c3-3.1,6.8-6.3,8.8-10.1c0.6-1.2-0.6-2.5-1.9-1.9c-3.7,1.9-6.8,5.5-9.9,8.4
		c-2.4,2.2-4.8,4.3-7.1,6.5c-2.2-2.2-4.4-4.3-6.7-6.4c-3.1-3-6.3-6.8-10.1-8.8c-1.2-0.6-2.5,0.6-1.9,1.9c1.9,3.7,5.5,6.8,8.4,9.9
		c2.2,2.4,4.3,4.7,6.5,7.1c-5.4,5.1-10.9,10.2-16,15.5c-2.6,2.7,1.4,6.8,4.2,4.1c5.3-5.1,10.4-10.4,15.6-15.6
		c5.1,5.4,10.1,10.8,15.4,15.9c2.7,2.6,6.8-1.4,4.2-4.2C66.4,55.4,61.1,50.2,55.8,45z"/>
</g>
</svg>
