<svg xmlns="http://www.w3.org/2000/svg" viewBox="0 0 101.9 89.9"><path d="M21.4 24.7c.8 0 1.7-.4 2.3-.9.6-.6 1-1.5.9-2.3 0-.8-.3-1.7-.9-2.3-.6-.6-1.4-.9-2.3-.9-.8 0-1.7.4-2.3.9-.6.6-1 1.5-.9 2.3 0 .8.3 1.7.9 2.3.7.6 1.5.9 2.3.9zM32.7 24.7c.8 0 1.7-.4 2.3-.9.6-.6 1-1.5.9-2.3 0-.8-.3-1.7-.9-2.3-.6-.6-1.4-.9-2.3-.9-.8 0-1.7.4-2.3.9-.6.6-1 1.5-.9 2.3 0 .8.3 1.7.9 2.3.7.6 1.5.9 2.3.9zM44 24.7c.8 0 1.7-.4 2.3-.9.6-.6 1-1.5.9-2.3 0-.8-.3-1.7-.9-2.3-.6-.6-1.4-.9-2.3-.9-.8 0-1.7.4-2.3.9-.6.6-1 1.5-.9 2.3 0 .8.3 1.7.9 2.3.7.6 1.5.9 2.3.9z"/><path d="M93 10c-27.1-1-54.2-1-81.3-.6-3.4.1-4 4.5-1.7 6l-.3 13.2s-1.3.2-3.4.6c-1 .2-.9 1.6 0 1.9 2 .6 3.3.9 3.3.9-.1 8.7 0 17.5.1 26.2 0 3.5.1 7 .2 10.4 0 2.1.1 4.1.1 6.2 0 1.5-.3 3.4.2 4.9.9 2.5 3.4 2.2 5.6 2.3 3.9.1 7.9.1 11.8.2 15.5.2 31 .3 46.5.2 5.5 0 12 .5 16.2-3.7 3.9-3.9 4.3-9.9 4.5-15.1.8-17.1-.8-34.2.3-51.2.3-1.4-.9-2.4-2.1-2.4zm-80.5 5.8c26-.9 52.1-1.2 78.1-1.2-.1 4.4-.1 8.8 0 13.2-14.6.4-29.2.6-43.8.5-7.1 0-14.3.1-21.4.1-3.6 0-7.1.1-10.7.2h-1.5c-.2-4.3-.4-8.5-.7-12.8zm77.3 55.5c-1.9 6.8-8.5 6.4-14.3 6.5-13.9.1-57.5-.2-58.3-.2h-1.9c-.7-.2-1.5-36.7-1.9-45.4h.7c3.6.2 7.1.5 10.7.6 7.3.3 14.7.5 22 .5 14.6 0 29.3-.2 43.9-.6.1 6.7.3 13.3.3 19.8 0 6.1.5 12.9-1.2 18.8z"/><path d="M81.4 52.8c-3.9-.1-7.8 0-11.7 0 0-1.5-.1-2.9-.1-4.4-.1-2.4.2-5.2-.6-7.5-.3-.8-1.3-.8-1.6 0-.8 2.2-.5 4.9-.6 7.2-.1 1.6-.2 3.1-.2 4.7-1.7 0-3.4.1-5.1.1-2.4.1-5.3-.2-7.6.6-.8.3-.8 1.3 0 1.6 2.2.8 4.9.5 7.3.6 1.7.1 3.5.2 5.2.3-.1 3.9-.3 7.8-.2 11.7 0 2.2 3.4 2.2 3.5 0 .1-3.9 0-7.7 0-11.6 3.9.1 7.8.3 11.6.2 2.3-.1 2.3-3.4.1-3.5zM34 69.2c-1.7 0-3.5-.1-5.2-.1-2.4-.1-5.1.1-7.3-.3-.8-.1-.8-.7 0-.8 2.3-.4 5.1-.3 7.6-.3 1.7 0 3.4-.1 5.1-.1 3.9 0 7.8-.1 11.7-.1 2.2 0 2.2 1.8 0 1.9-4 0-8-.1-11.9-.2zM34 64.6c-1.7 0-3.5-.1-5.2-.1-2.4-.1-5.1.1-7.3-.3-.8-.1-.8-.7 0-.8 2.3-.4 5.1-.3 7.6-.3 1.7 0 3.4-.1 5.1-.1 3.9 0 7.8-.1 11.7-.1 2.2 0 2.2 1.8 0 1.9-4-.1-8-.2-11.9-.2zM33.4 59.7c-1.7 0-3.5-.1-5.2-.1-2.4-.1-5.1.1-7.3-.3-.8-.1-.8-.7 0-.8 2.3-.4 5.1-.3 7.6-.3 1.7 0 3.4-.1 5.1-.1 3.9 0 7.8-.1 11.7-.1 2.2 0 2.2 1.8 0 1.9-4-.1-8.1-.2-11.9-.2zM33.4 55c-1.7 0-3.5-.1-5.2-.1-2.4-.1-5.1.1-7.3-.3-.8-.1-.8-.7 0-.8 2.3-.4 5.1-.3 7.6-.3 1.7 0 3.4-.1 5.1-.1 3.9 0 7.8-.1 11.7-.1 2.2 0 2.2 1.8 0 1.9-4-.1-8.1-.2-11.9-.2zM33.4 50.2c-1.7 0-3.5-.1-5.2-.1-2.4-.1-5.1.1-7.3-.3-.8-.1-.8-.7 0-.8 2.3-.4 5.1-.3 7.6-.3 1.7 0 3.4-.1 5.1-.1 3.9 0 7.8-.1 11.7-.1 2.2 0 2.2 1.8 0 1.9-4 0-8.1-.1-11.9-.2zM33.4 45.6c-1.7 0-3.5-.1-5.2-.1-2.4-.1-5.1.1-7.3-.3-.8-.1-.8-.7 0-.8 2.3-.4 5.1-.3 7.6-.3 1.7 0 3.4-.1 5.1-.1 3.9 0 7.8-.1 11.7-.1 2.2 0 2.2 1.8 0 1.9-4-.1-8.1-.2-11.9-.2z"/></svg>