<svg width="28" height="28" viewBox="0 -51.692 28 28" xmlns="http://www.w3.org/2000/svg"><path d="M19.385-39.846c0-2.076-.738-3.85-2.213-5.326-1.475-1.475-3.25-2.213-5.326-2.213-2.075 0-3.85.738-5.326 2.213-1.475 1.475-2.212 3.25-2.212 5.326 0 2.075.737 3.85 2.212 5.325 1.476 1.476 3.25 2.213 5.326 2.213 2.075 0 3.85-.737 5.326-2.213 1.475-1.475 2.213-3.25 2.213-5.325zm8.615 14a2.07 2.07 0 0 1-.64 1.514 2.07 2.07 0 0 1-1.514.64c-.606 0-1.11-.214-1.514-.64l-5.772-5.755C16.552-28.696 14.314-28 11.846-28a11.64 11.64 0 0 1-4.602-.934c-1.464-.623-2.726-1.464-3.786-2.524S1.556-33.78.934-35.244A11.64 11.64 0 0 1 0-39.846c0-1.604.311-3.138.934-4.602.622-1.464 1.464-2.726 2.524-3.786s2.322-1.902 3.786-2.525a11.64 11.64 0 0 1 4.602-.933c1.604 0 3.138.31 4.602.933 1.464.623 2.726 1.464 3.786 2.525 1.06 1.06 1.902 2.322 2.524 3.786a11.64 11.64 0 0 1 .934 4.602c0 2.468-.695 4.706-2.086 6.714l5.771 5.771c.415.415.623.92.623 1.515z" fill="#FFF"/></svg>