<svg id="Layer_1" data-name="Layer 1" xmlns="http://www.w3.org/2000/svg" viewBox="0 0 48.09 23.4"><defs><style>.cls-1,.cls-3{fill:none;stroke:#231f20;stroke-miterlimit:10;}.cls-1{stroke-width:2px;}.cls-2{fill:#231f20;}.cls-3{stroke-width:3px;}</style></defs><title>bairrada</title><path class="cls-1" d="M28.35,5.92a12,12,0,0,0-9.09,5.17,6.82,6.82,0,0,0-1.51,4.37c.2,2.82,2.77,4.34,5,5a30.23,30.23,0,0,0,9.32,1.36,3.89,3.89,0,0,0,2.3-.57,4.43,4.43,0,0,0,1.36-3.8,13.63,13.63,0,0,0-1.14-4.13C33.37,10.26,32,7,29.68,5.14a9.84,9.84,0,0,0-6.81-1.86,9.28,9.28,0,0,0-6.05,2.23,7.35,7.35,0,0,0-2.13,6.9,7.62,7.62,0,0,0,1.86,3.21A22.68,22.68,0,0,0,20.72,19a8.08,8.08,0,0,0,3.66,1.71A5.69,5.69,0,0,0,28,19.55a11.83,11.83,0,0,0,4.79-6.77,10.67,10.67,0,0,0-1.31-8.63,6.55,6.55,0,0,0-8.6-1.83C20,3.92,18.07,7.39,17.35,11.1a10.81,10.81,0,0,0,0,5.09A8.61,8.61,0,0,0,22,21.3a13.33,13.33,0,0,0,10.09.85,6.88,6.88,0,0,0,4.34-3.44c1.36-2.87.22-6.54-1.25-9.33s-3.51-5.62-6.12-6.94a13.09,13.09,0,0,0-6.9-1,8.33,8.33,0,0,0-4.58,1.3C15,4.65,14.18,9.22,15.45,12.62a10.1,10.1,0,0,0,7.16,6.28,16.72,16.72,0,0,0,9-.92,27.65,27.65,0,0,0,5.61-2.54,4.74,4.74,0,0,0,2.46-2.94A4.89,4.89,0,0,0,38.92,9c-2.12-3.39-6-4.29-9.44-4.52-1.86-.13-3.92-.06-5.34,1.42-2,2.11-1.71,6.39.18,8.67a7.47,7.47,0,0,0,7.45,2.24,5.68,5.68,0,0,0,4.39-3.46c.91-2.57-.41-5.45-1.77-7.71a8.81,8.81,0,0,0-2.5-3c-1.52-1-3.37-.7-5-.23a11.73,11.73,0,0,0-5.94,3.39,8.21,8.21,0,0,0-1.82,7.33c.73,2.56,3.45,4.15,5.34,2.74a6.93,6.93,0,0,0,1.46-1.74c1.16-1.75,2.33-3.81,2.1-6a8.24,8.24,0,0,0-2.55-4.7,6.05,6.05,0,0,0-2.28-1.73,2.17,2.17,0,0,0-2.51.67" transform="translate(-1.67 -0.37)"/><path class="cls-2" d="M27,13.61c3.21,0,3.22-5,0-5s-3.23,5,0,5Z" transform="translate(-1.67 -0.37)"/><path class="cls-2" d="M27.72,13.06c3.21,0,3.22-5,0-5s-3.23,5,0,5Z" transform="translate(-1.67 -0.37)"/><path class="cls-2" d="M25.66,10.23A3.12,3.12,0,0,0,26.11,12a2.52,2.52,0,0,0,3.42.9,2.56,2.56,0,0,0,.9-3.42c.12.91.2,1.15.23.71a2.49,2.49,0,0,0-2.5-2.5,2.57,2.57,0,0,0-1.77.73,3,3,0,0,0-.73,1.77Z" transform="translate(-1.67 -0.37)"/><path class="cls-2" d="M26,9.9A7.82,7.82,0,0,0,28,14a2.51,2.51,0,0,0,3.53,0,2.55,2.55,0,0,0,0-3.54q-.27-.31,0,.06l-.22-.32c0-.06-.39-.72-.23-.39s-.11-.35-.13-.43a7,7,0,0,1-.15-.77A2.5,2.5,0,0,0,26.22,8,2.9,2.9,0,0,0,26,9.9Z" transform="translate(-1.67 -0.37)"/><path class="cls-2" d="M28.59,12.29c-.91-.89-1.2-1.1-.87-.62l.24.41c.14.23.27.47.4.71.29.52.56,1,.82,1.57a2.53,2.53,0,0,0,3.43.89,2.55,2.55,0,0,0,.89-3.42c-.8-1.6-1.69-3.87-3.58-4.36a2.5,2.5,0,1,0-1.33,4.82Z" transform="translate(-1.67 -0.37)"/><path class="cls-2" d="M32,11.05c-.63-.05-1.25-.12-1.88-.16-.32,0-.36,0-.11,0s.2,0,0,0-.23-.05.1.08c.51.66.67.8.47.42a2.51,2.51,0,0,0-3.42-.9,2.57,2.57,0,0,0-.9,3.42c1,2.14,3.79,2,5.77,2.15a2.52,2.52,0,0,0,2.5-2.5,2.56,2.56,0,0,0-2.5-2.5Z" transform="translate(-1.67 -0.37)"/><path class="cls-2" d="M29.86,11.81c-.43-.25.42.39.06,0l.23.27c.14.38.17.45.09.2a2.53,2.53,0,0,0-3.07-1.75,2.56,2.56,0,0,0-1.75,3.08,4.15,4.15,0,0,0,1.92,2.48,2.5,2.5,0,0,0,2.52-4.32Z" transform="translate(-1.67 -0.37)"/><path class="cls-2" d="M28.82,13.34a1,1,0,0,1-.29,0c.42.08.5.08.23,0a1.16,1.16,0,0,1,.6.36,1.34,1.34,0,0,1-.2-.21,2.5,2.5,0,0,0-3.53,0,2.56,2.56,0,0,0,0,3.54,3.86,3.86,0,0,0,3.19,1.28,2.73,2.73,0,0,0,1.77-.73,2.53,2.53,0,0,0,.73-1.77c-.06-1.22-1.11-2.66-2.5-2.5Z" transform="translate(-1.67 -0.37)"/><path class="cls-2" d="M27.31,14.21c-.35.26.59-.15.2-.06.48,0,.59-.06.32-.06.46.08.59.09.39,0s-.08,0,.33.14c-.15-.1-.13-.08.07.06a1.14,1.14,0,0,1,.42.45c.15.44.19.53.12.29a2.52,2.52,0,0,0-3.07-1.75,2.54,2.54,0,0,0-1.75,3.07c.6,2.21,3.54,3.58,5.5,2.14A2.78,2.78,0,0,0,31,17a2.51,2.51,0,0,0-3.68-2.82Z" transform="translate(-1.67 -0.37)"/><path class="cls-2" d="M27.54,14.91c-.24-.16-.27-.16-.07,0a3.4,3.4,0,0,1-.34-.32c-.19-.22-.2-.23,0-.05a4,4,0,0,1-.23-.41c.2.42-.09-.38-.11-.51.1.67.11-.73,0-.06A2.57,2.57,0,0,0,25,10.47a2.52,2.52,0,0,0-3.08,1.75,6.67,6.67,0,0,0,3.09,7,2.5,2.5,0,0,0,2.52-4.32Z" transform="translate(-1.67 -0.37)"/><path class="cls-2" d="M25.61,14.32l-.25-.27L26,15.16l-.08-.38v1.33c.08-.52.34-.95.46-1.46a15,15,0,0,0,0-1.9c.11-1,1.24-2,1.95-2.69,2.38-2.17-1.16-5.7-3.54-3.54-1.55,1.42-3.22,3.53-3.38,5.7a5.54,5.54,0,0,0,.13,1.35c0-.44-.35.87-.39,1a3.39,3.39,0,0,0,.94,3.26c2.2,2.37,5.73-1.18,3.54-3.53Z" transform="translate(-1.67 -0.37)"/><path class="cls-2" d="M23.31,15c3.22,0,3.23-5,0-5s-3.22,5,0,5Z" transform="translate(-1.67 -0.37)"/><path class="cls-2" d="M27.94,17c3.21,0,3.22-5,0-5s-3.23,5,0,5Z" transform="translate(-1.67 -0.37)"/><path class="cls-2" d="M33,15.81c3.22,0,3.22-5,0-5s-3.22,5,0,5Z" transform="translate(-1.67 -0.37)"/><path class="cls-2" d="M33.44,16.14c3.22,0,3.22-5,0-5s-3.22,5,0,5Z" transform="translate(-1.67 -0.37)"/><path class="cls-2" d="M34.61,10.23A4.26,4.26,0,0,0,32.3,7.64c-.39-.21-.19,0,.05.1.09.15.08.11-.06-.11l-.15-.29c-.25-.52-.49-1-.73-1.56A2.52,2.52,0,0,0,28,4.88a2.58,2.58,0,0,0-.9,3.42,9.5,9.5,0,0,0,1.59,2.81,5.71,5.71,0,0,0,1.18.89c.11.07.37.29.48.28-.22,0-.52-.58-.56-.72a2.5,2.5,0,0,0,4.83-1.33Z" transform="translate(-1.67 -0.37)"/><path class="cls-2" d="M30.91,10.09c3.22,0,3.22-5,0-5s-3.22,5,0,5Z" transform="translate(-1.67 -0.37)"/><path class="cls-2" d="M25.84,19.79a12.86,12.86,0,0,0,5.32-1.15c1.75-.72,3.06-1.38,3.8-3.23a2.51,2.51,0,0,0-1.74-3.08,2.57,2.57,0,0,0-3.08,1.75c.37-.92.29-.53-.27-.27s-.89.35-1.34.51a7.26,7.26,0,0,1-2.69.47c-3.21-.1-3.21,4.9,0,5Z" transform="translate(-1.67 -0.37)"/><path class="cls-3" d="M23.29,9.59a4.66,4.66,0,0,1-1.44,1.56,12.54,12.54,0,0,1-3.16,2,13.19,13.19,0,0,1-2.33.56,30.19,30.19,0,0,1-5.18.57,10,10,0,0,1-5-1.22,3.57,3.57,0,0,0-1-.47,4.22,4.22,0,0,0-1.12-.11H1.69" transform="translate(-1.67 -0.37)"/><path class="cls-3" d="M34,12.54a11.84,11.84,0,0,0,3.71-.31c.81-.22,1.58-.57,2.37-.81a10,10,0,0,1,5.3-.17c1.41.34,2.74,1,4.18,1.24" transform="translate(-1.67 -0.37)"/><path class="cls-2" d="M20.73,16.4c3.21,0,3.22-5,0-5s-3.23,5,0,5Z" transform="translate(-1.67 -0.37)"/><path class="cls-2" d="M18,16.07a5.39,5.39,0,0,0,3.43,2.74A2.5,2.5,0,1,0,22.72,14l-.28-.08c.38.16.44.19.21.07a2,2,0,0,1-.25-.14c.29.23.36.29.22.17a2.4,2.4,0,0,0-.35-.36c.24.32.28.37.14.15s-.09-.17-.13-.25a2.52,2.52,0,0,0-3.42-.9,2.56,2.56,0,0,0-.9,3.42Z" transform="translate(-1.67 -0.37)"/><path class="cls-2" d="M21.7,4.31a11.63,11.63,0,0,0-2.08,4.63,2.5,2.5,0,1,0,4.82,1.33A7.4,7.4,0,0,1,26,6.83a2.5,2.5,0,0,0-.89-3.42,2.58,2.58,0,0,0-3.42.9Z" transform="translate(-1.67 -0.37)"/><path class="cls-2" d="M33.72,13.1c3.21,0,3.22-5,0-5s-3.23,5,0,5Z" transform="translate(-1.67 -0.37)"/></svg>